<?xml version="1.0" encoding="UTF-8"?>
<!DOCTYPE svg PUBLIC "-//W3C//DTD SVG 1.1//EN" "http://www.w3.org/Graphics/SVG/1.1/DTD/svg11.dtd">
<svg xmlns="http://www.w3.org/2000/svg" version="1.1" width="247px" height="204px" style="shape-rendering:geometricPrecision; text-rendering:geometricPrecision; image-rendering:optimizeQuality; fill-rule:evenodd; clip-rule:evenodd" xmlns:xlink="http://www.w3.org/1999/xlink">
<g><path style="opacity:1" fill="#fcfdfe" d="M -0.5,-0.5 C 81.8333,-0.5 164.167,-0.5 246.5,-0.5C 246.5,62.8333 246.5,126.167 246.5,189.5C 164.167,189.5 81.8333,189.5 -0.5,189.5C -0.5,126.167 -0.5,62.8333 -0.5,-0.5 Z"/></g>
<g><path style="opacity:1" fill="#0d4da1" d="M 75.5,0.5 C 91.8367,0.333403 108.17,0.500069 124.5,1C 139.343,3.67088 146.676,12.5042 146.5,27.5C 146.953,46.0911 137.953,56.5911 119.5,59C 104.504,59.4999 89.5037,59.6666 74.5,59.5C 74.5,58.1667 74.5,56.8333 74.5,55.5C 78.3547,56.1546 81.1881,54.8212 83,51.5C 83.6667,36.8333 83.6667,22.1667 83,7.5C 81.195,4.96069 78.695,3.96069 75.5,4.5C 75.5,3.16667 75.5,1.83333 75.5,0.5 Z"/></g>
<g><path style="opacity:1" fill="#0a4ca0" d="M 38.5,6.5 C 37.5088,13.3134 37.1755,20.3134 37.5,27.5C 41.3714,27.815 45.0381,27.4816 48.5,26.5C 53.1219,26.5449 55.4552,24.2116 55.5,19.5C 56.8333,19.5 58.1667,19.5 59.5,19.5C 59.5,26.8333 59.5,34.1667 59.5,41.5C 58.1667,41.5 56.8333,41.5 55.5,41.5C 55.7691,35.7688 53.1024,33.1021 47.5,33.5C 44.3752,32.5206 41.0419,32.1872 37.5,32.5C 37.176,39.3543 37.5093,46.021 38.5,52.5C 38.4142,53.4959 38.7476,54.3292 39.5,55C 42.146,55.4974 44.8127,55.6641 47.5,55.5C 47.5,56.8333 47.5,58.1667 47.5,59.5C 35.8333,59.5 24.1667,59.5 12.5,59.5C 12.5,58.1667 12.5,56.8333 12.5,55.5C 15.2724,55.78 17.7724,55.1134 20,53.5C 21.1026,45.2255 21.6026,36.8921 21.5,28.5C 21.3333,21.5 21.1667,14.5 21,7.5C 19.1516,4.95855 16.6516,3.95855 13.5,4.5C 13.5,3.16667 13.5,1.83333 13.5,0.5C 31.1667,0.5 48.8333,0.5 66.5,0.5C 65.9022,5.81299 65.5688,11.1463 65.5,16.5C 63.5,16.5 61.5,16.5 59.5,16.5C 60.0288,12.8084 59.0288,9.64169 56.5,7C 50.5092,6.50051 44.5092,6.33385 38.5,6.5 Z"/></g>
<g><path style="opacity:1" fill="#0f4ea1" d="M 153.5,0.5 C 167.504,0.333428 181.504,0.500094 195.5,1C 207.877,2.90929 213.044,10.076 211,22.5C 208.737,29.0972 204.237,33.2639 197.5,35C 191.231,36.2573 184.898,36.7573 178.5,36.5C 178.334,42.1764 178.501,47.8431 179,53.5C 181.481,55.3137 184.315,55.9804 187.5,55.5C 187.5,56.8333 187.5,58.1667 187.5,59.5C 176.167,59.5 164.833,59.5 153.5,59.5C 153.5,58.1667 153.5,56.8333 153.5,55.5C 157.182,56.2747 159.682,54.9414 161,51.5C 161.667,36.8333 161.667,22.1667 161,7.5C 159.195,4.96069 156.695,3.96069 153.5,4.5C 153.5,3.16667 153.5,1.83333 153.5,0.5 Z"/></g>
<g><path style="opacity:1" fill="#fcfcfd" d="M 101.5,5.5 C 119.759,3.09292 129.093,11.0929 129.5,29.5C 129.847,47.9872 120.847,56.1539 102.5,54C 101.874,53.2496 101.374,52.4162 101,51.5C 100.184,36.0923 100.351,20.759 101.5,5.5 Z"/></g>
<g><path style="opacity:1" fill="#fafbfc" d="M 178.5,5.5 C 188.807,3.81123 193.807,8.14457 193.5,18.5C 193.207,28.1208 188.207,32.4542 178.5,31.5C 178.5,22.8333 178.5,14.1667 178.5,5.5 Z"/></g>
<g><path style="opacity:1" fill="#b6c4dd" d="M 38.5,6.5 C 38.5,13.1667 38.5,19.8333 38.5,26.5C 41.8333,26.5 45.1667,26.5 48.5,26.5C 45.0381,27.4816 41.3714,27.815 37.5,27.5C 37.1755,20.3134 37.5088,13.3134 38.5,6.5 Z"/></g>
<g><path style="opacity:1" fill="#c0cde2" d="M 47.5,33.5 C 44.5,33.5 41.5,33.5 38.5,33.5C 38.5,39.8333 38.5,46.1667 38.5,52.5C 37.5093,46.021 37.176,39.3543 37.5,32.5C 41.0419,32.1872 44.3752,32.5206 47.5,33.5 Z"/></g>
<g><path style="opacity:1" fill="#839bc6" d="M 27.5,88.5 C 23.8333,88.5 20.1667,88.5 16.5,88.5C 16.5,98.1667 16.5,107.833 16.5,117.5C 15.506,107.681 15.1726,97.6806 15.5,87.5C 19.7016,87.1832 23.7016,87.5166 27.5,88.5 Z"/></g>
<g><path style="opacity:1" fill="#0b4ba0" d="M 27.5,88.5 C 31.5971,88.469 34.0971,90.469 35,94.5C 40.1058,111.706 33.9392,119.373 16.5,117.5C 16.5,107.833 16.5,98.1667 16.5,88.5C 20.1667,88.5 23.8333,88.5 27.5,88.5 Z"/></g>
<g><path style="opacity:1" fill="#94a9ce" d="M 46.5,88.5 C 44.8333,88.5 43.1667,88.5 41.5,88.5C 41.5,89.8333 41.5,91.1667 41.5,92.5C 40.5489,91.0813 40.2155,89.4147 40.5,87.5C 42.7354,87.2053 44.7354,87.5386 46.5,88.5 Z"/></g>
<g><path style="opacity:1" fill="#0f4da0" d="M 81.5,88.5 C 83.5,88.5 85.5,88.5 87.5,88.5C 87.5,96.5 87.5,104.5 87.5,112.5C 90.5,112.5 93.5,112.5 96.5,112.5C 96.5,114.167 96.5,115.833 96.5,117.5C 91.5,117.5 86.5,117.5 81.5,117.5C 81.5,107.833 81.5,98.1667 81.5,88.5 Z"/></g>
<g><path style="opacity:1" fill="#03459d" d="M 186.5,88.5 C 188.167,88.5 189.833,88.5 191.5,88.5C 191.5,98.1667 191.5,107.833 191.5,117.5C 189.833,117.5 188.167,117.5 186.5,117.5C 186.5,107.833 186.5,98.1667 186.5,88.5 Z"/></g>
<g><path style="opacity:1" fill="#033d9b" d="M 46.5,88.5 C 46.5,89.8333 46.5,91.1667 46.5,92.5C 44.8333,92.5 43.1667,92.5 41.5,92.5C 41.5,91.1667 41.5,89.8333 41.5,88.5C 43.1667,88.5 44.8333,88.5 46.5,88.5 Z"/></g>
<g><path style="opacity:1" fill="#033c9a" d="M 100.5,88.5 C 102.167,88.5 103.833,88.5 105.5,88.5C 105.5,89.8333 105.5,91.1667 105.5,92.5C 103.833,92.5 102.167,92.5 100.5,92.5C 100.5,91.1667 100.5,89.8333 100.5,88.5 Z"/></g>
<g><path style="opacity:1" fill="#99aed2" d="M 22.5,92.5 C 22.5,99.1667 22.5,105.833 22.5,112.5C 23.8333,112.5 25.1667,112.5 26.5,112.5C 25.0813,113.451 23.4147,113.784 21.5,113.5C 21.1755,106.313 21.5088,99.3134 22.5,92.5 Z"/></g>
<g><path style="opacity:1" fill="#fafbfd" d="M 22.5,92.5 C 25.5468,91.8554 27.7135,92.8554 29,95.5C 29.6667,100.5 29.6667,105.5 29,110.5C 28.2917,111.381 27.4584,112.047 26.5,112.5C 25.1667,112.5 23.8333,112.5 22.5,112.5C 22.5,105.833 22.5,99.1667 22.5,92.5 Z"/></g>
<g><path style="opacity:1" fill="#89a0c8" d="M 46.5,97.5 C 44.8333,97.5 43.1667,97.5 41.5,97.5C 41.5,104.167 41.5,110.833 41.5,117.5C 40.5088,110.687 40.1755,103.687 40.5,96.5C 42.7354,96.2053 44.7354,96.5386 46.5,97.5 Z"/></g>
<g><path style="opacity:1" fill="#89a0c8" d="M 105.5,97.5 C 103.833,97.5 102.167,97.5 100.5,97.5C 100.5,104.167 100.5,110.833 100.5,117.5C 99.5088,110.687 99.1755,103.687 99.5,96.5C 101.735,96.2053 103.735,96.5386 105.5,97.5 Z"/></g>
<g><path style="opacity:1" fill="#1d50a2" d="M 110.5,88.5 C 112.5,88.5 114.5,88.5 116.5,88.5C 116.335,91.8499 116.502,95.1832 117,98.5C 120.294,95.6888 123.294,96.0221 126,99.5C 126.667,104.5 126.667,109.5 126,114.5C 125.626,115.416 125.126,116.25 124.5,117C 119.828,116.18 115.162,116.347 110.5,117.5C 110.5,107.833 110.5,98.1667 110.5,88.5 Z"/></g>
<g><path style="opacity:1" fill="#04499f" d="M 46.5,97.5 C 46.5,104.167 46.5,110.833 46.5,117.5C 44.8333,117.5 43.1667,117.5 41.5,117.5C 41.5,110.833 41.5,104.167 41.5,97.5C 43.1667,97.5 44.8333,97.5 46.5,97.5 Z"/></g>
<g><path style="opacity:1" fill="#184fa2" d="M 67.5,102.5 C 67.5,104.167 67.5,105.833 67.5,107.5C 63.9581,107.187 60.6248,107.521 57.5,108.5C 57.0508,110.977 57.7175,112.977 59.5,114.5C 60.8333,113.833 61.8333,112.833 62.5,111.5C 64.0453,110.548 65.712,110.215 67.5,110.5C 67.822,112.722 67.1554,114.556 65.5,116C 55.7982,119.993 51.1315,116.826 51.5,106.5C 51.8926,96.969 56.5592,94.1357 65.5,98C 66.5822,99.3297 67.2488,100.83 67.5,102.5 Z"/></g>
<g><path style="opacity:1" fill="#05489f" d="M 105.5,97.5 C 105.5,104.167 105.5,110.833 105.5,117.5C 103.833,117.5 102.167,117.5 100.5,117.5C 100.5,110.833 100.5,104.167 100.5,97.5C 102.167,97.5 103.833,97.5 105.5,97.5 Z"/></g>
<g><path style="opacity:1" fill="#2855a5" d="M 135.5,96.5 C 144.521,95.5205 148.521,99.5205 147.5,108.5C 143.833,108.5 140.167,108.5 136.5,108.5C 136.132,111.056 136.966,113.056 139,114.5C 141.02,113.968 141.853,112.635 141.5,110.5C 146.688,109.622 148.188,111.289 146,115.5C 141.01,118.462 136.344,118.128 132,114.5C 130.543,110.259 130.209,105.926 131,101.5C 132.025,99.313 133.525,97.6464 135.5,96.5 Z"/></g>
<g><path style="opacity:1" fill="#5a7bb6" d="M 157.5,98.5 C 157.565,98.9382 157.399,99.2716 157,99.5C 155.951,97.8934 154.451,97.2267 152.5,97.5C 152.5,104.167 152.5,110.833 152.5,117.5C 151.509,110.687 151.175,103.687 151.5,96.5C 154.082,96.0254 156.082,96.6921 157.5,98.5 Z"/></g>
<g><path style="opacity:1" fill="#0b4ca0" d="M 152.5,117.5 C 152.5,110.833 152.5,104.167 152.5,97.5C 154.451,97.2267 155.951,97.8934 157,99.5C 157.399,99.2716 157.565,98.9382 157.5,98.5C 158.82,97.0582 160.486,96.3915 162.5,96.5C 162.5,98.1667 162.5,99.8333 162.5,101.5C 160.61,101.297 159.11,101.963 158,103.5C 157.501,108.155 157.334,112.821 157.5,117.5C 155.833,117.5 154.167,117.5 152.5,117.5 Z"/></g>
<g><path style="opacity:1" fill="#104ba0" d="M 168.5,96.5 C 172.79,95.9874 176.623,96.9874 180,99.5C 180.499,105.491 180.666,111.491 180.5,117.5C 178.234,117.859 176.401,117.192 175,115.5C 167.681,119.2 164.347,116.867 165,108.5C 167.591,104.952 171.091,103.618 175.5,104.5C 175.99,102.052 175.157,100.385 173,99.5C 171.013,101.628 168.513,102.628 165.5,102.5C 165.615,100.053 166.615,98.0532 168.5,96.5 Z"/></g>
<g><path style="opacity:1" fill="#1e51a3" d="M 201.5,96.5 C 210.521,95.5205 214.521,99.5205 213.5,108.5C 209.833,108.5 206.167,108.5 202.5,108.5C 202.132,111.056 202.966,113.056 205,114.5C 207.02,113.968 207.853,112.635 207.5,110.5C 214.643,110.179 215.31,112.346 209.5,117C 205.091,118.262 201.257,117.428 198,114.5C 196.543,110.259 196.209,105.926 197,101.5C 198.025,99.313 199.525,97.6464 201.5,96.5 Z"/></g>
<g><path style="opacity:1" fill="#1850a2" d="M 217.5,96.5 C 220.079,96.0833 222.246,96.75 224,98.5C 226.795,95.887 229.629,95.887 232.5,98.5C 233.46,104.773 233.793,111.107 233.5,117.5C 231.5,117.5 229.5,117.5 227.5,117.5C 227.5,111.833 227.5,106.167 227.5,100.5C 226.167,100.5 224.833,100.5 223.5,100.5C 223.5,106.167 223.5,111.833 223.5,117.5C 221.5,117.5 219.5,117.5 217.5,117.5C 217.5,110.5 217.5,103.5 217.5,96.5 Z"/></g>
<g><path style="opacity:1" fill="#dde3ef" d="M 57.5,100.5 C 61.5,99.8333 63.1667,101.5 62.5,105.5C 57.5854,106.59 55.9187,104.923 57.5,100.5 Z"/></g>
<g><path style="opacity:1" fill="#f2f5f9" d="M 117.5,100.5 C 118.822,100.33 119.989,100.663 121,101.5C 121.667,105.167 121.667,108.833 121,112.5C 120.047,114.592 118.714,114.925 117,113.5C 116.232,109.08 116.398,104.747 117.5,100.5 Z"/></g>
<g><path style="opacity:1" fill="#f9fafc" d="M 137.5,100.5 C 138.833,100.5 140.167,100.5 141.5,100.5C 141.5,101.833 141.5,103.167 141.5,104.5C 139.833,104.5 138.167,104.5 136.5,104.5C 136.433,103.041 136.766,101.708 137.5,100.5 Z"/></g>
<g><path style="opacity:1" fill="#e6eaf3" d="M 203.5,100.5 C 204.833,100.5 206.167,100.5 207.5,100.5C 207.5,102.167 207.5,103.833 207.5,105.5C 205.833,105.5 204.167,105.5 202.5,105.5C 202.366,103.708 202.699,102.042 203.5,100.5 Z"/></g>
<g><path style="opacity:1" fill="#7f9ac6" d="M 67.5,102.5 C 68.4614,104.265 68.7947,106.265 68.5,108.5C 64.8333,108.5 61.1667,108.5 57.5,108.5C 60.6248,107.521 63.9581,107.187 67.5,107.5C 67.5,105.833 67.5,104.167 67.5,102.5 Z"/></g>
<g><path style="opacity:1" fill="#f0f3f8" d="M 171.5,107.5 C 172.833,107.5 174.167,107.5 175.5,107.5C 175.967,110.38 175.134,112.713 173,114.5C 170.287,112.782 169.787,110.448 171.5,107.5 Z"/></g>
<g><path style="opacity:1" fill="#83c5ec" d="M 28.5,132.5 C 24.5,132.5 20.5,132.5 16.5,132.5C 16.5,142.167 16.5,151.833 16.5,161.5C 15.506,151.681 15.1726,141.681 15.5,131.5C 20.0323,131.182 24.3656,131.515 28.5,132.5 Z"/></g>
<g><path style="opacity:1" fill="#13a0e2" d="M 28.5,132.5 C 30.5816,132.624 32.0816,133.624 33,135.5C 34.4437,140.256 33.2771,144.089 29.5,147C 31.0609,147.318 32.2276,148.151 33,149.5C 33.4988,153.486 33.6655,157.486 33.5,161.5C 31.8333,161.5 30.1667,161.5 28.5,161.5C 28.7592,157.76 28.4259,154.094 27.5,150.5C 25.8273,148.914 23.8273,148.247 21.5,148.5C 21.5,152.833 21.5,157.167 21.5,161.5C 19.8333,161.5 18.1667,161.5 16.5,161.5C 16.5,151.833 16.5,142.167 16.5,132.5C 20.5,132.5 24.5,132.5 28.5,132.5 Z"/></g>
<g><path style="opacity:1" fill="#14a0e1" d="M 56.5,132.5 C 58.1667,132.5 59.8333,132.5 61.5,132.5C 61.5,133.833 61.5,135.167 61.5,136.5C 59.8333,136.5 58.1667,136.5 56.5,136.5C 56.5,135.167 56.5,133.833 56.5,132.5 Z"/></g>
<g><path style="opacity:1" fill="#f3f9fd" d="M 21.5,135.5 C 27.7684,135.092 29.7684,137.759 27.5,143.5C 25.604,144.466 23.604,144.799 21.5,144.5C 21.5,141.5 21.5,138.5 21.5,135.5 Z"/></g>
<g><path style="opacity:1" fill="#23a2e2" d="M 41.5,140.5 C 50.1667,139.167 53.8333,142.833 52.5,151.5C 49.1667,151.5 45.8333,151.5 42.5,151.5C 42.2436,153.792 42.5769,155.959 43.5,158C 46.4904,158.847 47.8238,157.68 47.5,154.5C 49.1667,154.5 50.8333,154.5 52.5,154.5C 52.4506,157.099 51.4506,159.266 49.5,161C 45.6831,162.023 42.1831,161.523 39,159.5C 36.3761,152.59 37.2095,146.256 41.5,140.5 Z"/></g>
<g><path style="opacity:1" fill="#1ca1e2" d="M 66.5,161.5 C 66.5,154.833 66.5,148.167 66.5,141.5C 68.7411,141.954 70.7411,141.954 72.5,141.5C 75.9124,139.815 78.7457,140.482 81,143.5C 81.4995,149.491 81.6662,155.491 81.5,161.5C 79.8333,161.5 78.1667,161.5 76.5,161.5C 76.6661,155.824 76.4994,150.157 76,144.5C 73.5459,142.987 71.8793,143.654 71,146.5C 70.5007,151.489 70.3341,156.489 70.5,161.5C 69.1667,161.5 67.8333,161.5 66.5,161.5 Z"/></g>
<g><path style="opacity:1" fill="#1fa1e2" d="M 88.5,140.5 C 92.6034,139.769 96.1034,140.769 99,143.5C 99.4995,149.491 99.6662,155.491 99.5,161.5C 95.3052,161.052 90.9719,160.886 86.5,161C 82.4612,152.581 85.1279,148.414 94.5,148.5C 95.2436,145.05 93.9103,143.384 90.5,143.5C 90.5,144.5 90.5,145.5 90.5,146.5C 88.8333,146.5 87.1667,146.5 85.5,146.5C 85.461,143.911 86.461,141.911 88.5,140.5 Z"/></g>
<g><path style="opacity:1" fill="#21a1e2" d="M 107.5,140.5 C 110.649,140.211 113.649,140.711 116.5,142C 118.155,143.444 118.822,145.278 118.5,147.5C 116.833,147.5 115.167,147.5 113.5,147.5C 113.824,144.32 112.49,143.153 109.5,144C 108.167,148.667 108.167,153.333 109.5,158C 112.49,158.847 113.824,157.68 113.5,154.5C 115.167,154.5 116.833,154.5 118.5,154.5C 118.919,157.325 117.919,159.491 115.5,161C 111.091,162.262 107.257,161.428 104,158.5C 103.333,153.833 103.333,149.167 104,144.5C 104.69,142.65 105.856,141.316 107.5,140.5 Z"/></g>
<g><path style="opacity:1" fill="#36a6e3" d="M 121.5,131.5 C 123.167,131.5 124.833,131.5 126.5,131.5C 126.335,135.182 126.501,138.848 127,142.5C 130.696,139.575 134.029,139.908 137,143.5C 137.499,149.491 137.666,155.491 137.5,161.5C 135.5,161.5 133.5,161.5 131.5,161.5C 131.666,155.824 131.499,150.157 131,144.5C 129.413,143.273 128.079,143.606 127,145.5C 126.501,150.823 126.334,156.156 126.5,161.5C 124.833,161.5 123.167,161.5 121.5,161.5C 121.5,151.5 121.5,141.5 121.5,131.5 Z"/></g>
<g><path style="opacity:1" fill="#14a0e2" d="M 56.5,140.5 C 58.1667,140.5 59.8333,140.5 61.5,140.5C 61.5,147.5 61.5,154.5 61.5,161.5C 59.8333,161.5 58.1667,161.5 56.5,161.5C 56.5,154.5 56.5,147.5 56.5,140.5 Z"/></g>
<g><path style="opacity:1" fill="#8dc8ed" d="M 72.5,141.5 C 70.7411,141.954 68.7411,141.954 66.5,141.5C 66.5,148.167 66.5,154.833 66.5,161.5C 65.5088,154.687 65.1755,147.687 65.5,140.5C 67.9496,140.298 70.283,140.631 72.5,141.5 Z"/></g>
<g><path style="opacity:1" fill="#f3f9fd" d="M 44.5,143.5 C 47.0838,144.048 48.0838,145.715 47.5,148.5C 45.8333,148.5 44.1667,148.5 42.5,148.5C 42.3915,146.486 43.0582,144.82 44.5,143.5 Z"/></g>
<g><path style="opacity:1" fill="#f2f9fd" d="M 91.5,151.5 C 92.5,151.5 93.5,151.5 94.5,151.5C 94.6621,153.527 94.4955,155.527 94,157.5C 91.5237,159.063 90.0237,158.396 89.5,155.5C 89.7517,153.927 90.4183,152.594 91.5,151.5 Z"/></g>
<g><path style="opacity:1" fill="#22a3e2" d="M -0.5,189.5 C 81.8333,189.5 164.167,189.5 246.5,189.5C 246.5,194.167 246.5,198.833 246.5,203.5C 164.167,203.5 81.8333,203.5 -0.5,203.5C -0.5,198.833 -0.5,194.167 -0.5,189.5 Z"/></g>
</svg>
